<svg xmlns="http://www.w3.org/2000/svg" viewBox="0 0 1100 1100">
	<path d="M-491.5 1622.9v-2048h2048v2048h-2048ZM523.1 146.4c65.3-2 127.6 18.5 178.4 58.4 74.4 58.4 111 151.8 101.5 245.2a258 258 0 0 1-33.2 102.8 22 22 0 0 0 8.3 29.7c10.6 6 23.2 2.4 29.7-8.4 27-45.6 40.1-97.1 40.8-150.2 1-71.5-21.8-139.8-64.6-196.6A315.4 315.4 0 0 0 527.5 102a312.1 312.1 0 0 0-211.3 85.6 322.5 322.5 0 0 0-100.7 219.3A302.4 302.4 0 0 0 261 581.3c6.3 10 21.3 10.4 29.3 5a21.6 21.6 0 0 0 6.4-28.8c-7.4-13.8-14.4-27-20-41.8-52-137.8 17.8-295.5 153.5-350.3 29.6-12 60.2-18 93-19ZM418 853.6l230-.1c10.7 0 21-9.8 21.2-19.3l.5-47.3c.3-30 10-57.8 27.5-82.2a290.6 290.6 0 0 1 30.2-34.8c11.5-11.8 23.5-22.4 33.7-35.1a21.5 21.5 0 0 0-1.3-29c-7.2-7.2-20.6-8.7-28.5-.7l-34.2 34.5c-39.4 39.6-67.7 78.4-72.3 136.3l-.4 31.6h-70V603.2c90-10.9 158-85.3 161.2-175.5 2.8-79-43.4-151.1-117.4-179.8a181.6 181.6 0 0 0-210.2 57.8 182.2 182.2 0 0 0-39.8 115c-.8 92.9 70 170.9 160.8 182.7v203.7l-70.4.2c2.6-41.2-6.7-81-28.8-115.9a304.9 304.9 0 0 0-41.6-51.4l-35.4-36.5a21.1 21.1 0 0 0-27.7-2.6 21 21 0 0 0-5.9 27c2.6 5 5.8 9.4 9.8 13.4l28.2 28.7c31.4 31.9 54.4 64 56.9 110.8.8 16 .5 30.9.3 47.2-.2 13 8.5 25.5 23.7 25.5ZM642 884.8H421.6c-13 0-21.3 14.3-20.5 25 .7 11.6 9.6 23.3 22.5 23.3h217.8c13 0 21.5-12.7 21.7-23.8.1-11-7.7-24.5-21.2-24.5Zm2.9 126.6c13.5 0 21-15.3 20-25.8-1.2-11-9.8-22.4-22.4-22.4H420.6c-13.5 0-22.9 12.3-22.9 24.2 0 12.2 9.3 24.4 23 24.4l224-.4Zm-49.8 78.3c9.3 0 16.6-7.6 19.5-13.3a24 24 0 0 0-1.6-25 21.6 21.6 0 0 0-17.3-9.8l-130 .6c-12.6 0-19.8 15-18.6 25.7 1.3 11 10.2 21.8 22.5 21.8H595Z" style="fill:transparent" />
	<path d="m540.8 526.4-.3-29.4c-5.8-.1-11-.4-16.7.2l-.2 29.1c-7.1.3-14 .4-21.1 0l-.5-30-37.8-.2 3.7-23.5c5.6-1.9 21.5 2.6 21.5-6V371c0-10.7-16-5.8-22.6-7.2L464 342l37.6-.3.3-28.6 21.5-.1.2 28.1 16.9-.1.1-27.8 21.8-.2.4 29.5c23.4 1.2 46.7 10.5 46.7 37.4 0 13-5.8 24.2-17.4 30.6 24.6 6.3 32.9 23.5 29.6 46.6-5.2 32.8-30.6 37-59 39.7l-.1 29.5-21.8.1Zm30.2-141c0-22.6-31-20.7-46.7-20.1l.1 40.4c16.5-1 46.6 2 46.6-20.3Zm6.6 75a20 20 0 0 0-2.7-25.9c-11.3-8.9-36.8-8.2-50.7-8.1l.2 44.7c13.7 0 43.7.9 53.2-10.7Z" style="fill:#fefefe" />
	<path d="M418.2 853.6c-15.2 0-23.9-12.6-23.7-25.5.2-16.3.5-31.2-.3-47.2-2.5-46.7-25.5-79-56.9-110.8l-28.2-28.7c-4-4-7.2-8.4-9.8-13.3a21 21 0 0 1 5.9-27.1 21.1 21.1 0 0 1 27.7 2.6l35.4 36.5a304.9 304.9 0 0 1 41.6 51.4c22 35 31.4 74.7 28.8 116l70.4-.3V603.5c-90.9-11.8-161.6-89.8-160.8-182.7a182.2 182.2 0 0 1 39.8-115A181.6 181.6 0 0 1 598.3 248a184.6 184.6 0 0 1 117.4 179.8 183.1 183.1 0 0 1-161.2 175.5v204.1l70 .1.4-31.6c4.6-58 32.9-96.7 72.3-136.3l34.2-34.5c8-8 21.3-6.5 28.5.6 7.8 7.7 8.6 20 1.3 29.1-10.2 12.7-22.2 23.3-33.7 35-11 11.3-21.1 22-30.2 34.9a142.4 142.4 0 0 0-27.5 82.2l-.5 47.3c-.1 9.5-10.5 19.3-21.2 19.3l-230 .1Zm122.6-327.2 21.8-.1.1-29.5c28.4-2.7 53.8-6.9 59-39.7 3.3-23.1-5-40.3-29.6-46.6a33.4 33.4 0 0 0 17.4-30.6c0-26.9-23.3-36.2-46.7-37.4l-.4-29.5-21.8.2-.1 27.8-17 .1-.1-28.1h-21.5l-.3 28.7-37.6.3 2.8 21.8c6.6 1.4 22.7-3.5 22.7 7.2v95.6c-.1 8.6-16 4.1-21.6 6l-3.7 23.5 37.8.1.5 30c7 .5 14 .4 21 .1l.3-29c5.7-.7 10.9-.4 16.7-.3l.3 29.4Z" style="fill:#f8980c" />
	<path d="M577.6 460.4C568 472 538 471 524.4 471l-.2-44.7c14 0 39.4-.8 50.7 8.1a20 20 0 0 1 2.7 25.9Z" style="fill:#f8980c" />
	<path d="M523 146.4c-32.7 1-63.3 7-92.9 19-135.7 54.8-205.5 212.5-153.5 350.3 5.6 14.8 12.6 28 20 41.8a21.6 21.6 0 0 1-6.4 28.7c-8 5.5-23 5.1-29.3-4.9A302.4 302.4 0 0 1 215.5 407c3.4-83.5 40.6-162 100.7-219.3A312.1 312.1 0 0 1 527.5 102 315.4 315.4 0 0 1 784 227.3a318.8 318.8 0 0 1 64.6 196.6c-.7 53.1-13.8 104.6-40.8 150.2-6.5 10.8-19 14.5-29.7 8.4a22 22 0 0 1-8.3-29.7A258 258 0 0 0 803 450c9.6-93.4-27.1-186.8-101.5-245.2a273.8 273.8 0 0 0-178.4-58.4Z" style="fill:#f8980c" />
	<path d="M571 385.4c0 22.3-30.1 19.3-46.6 20.3l-.1-40.4c15.8-.6 46.7-2.5 46.7 20Z" style="fill:#f8980c" />
	<path d="m644.8 1011.4-224.2.4c-13.6 0-22.9-12.2-22.9-24.4 0-12 9.4-24.3 22.9-24.3l221.8.1c12.6 0 21.2 11.4 22.3 22.4 1.1 10.5-6.4 25.8-20 25.8ZM642 884.8c13.4 0 21.2 13.5 21 24.5 0 11.1-8.7 23.7-21.6 23.7H423.6c-12.9 0-21.8-11.6-22.5-23.2-.8-10.7 7.6-25 20.5-25H642ZM595 1089.7H469.5c-12.3 0-21.2-10.9-22.5-21.8-1.2-10.6 6-25.6 18.6-25.7l130-.6c7.1 0 13.6 4.3 17.3 9.7a24 24 0 0 1 1.6 25c-3 5.8-10.2 13.4-19.5 13.4Z" style="fill:#4f4f4f" />
</svg>
