<svg xmlns="http://www.w3.org/2000/svg" width="50" height="50" viewBox="0 0 24 24" fill="white" stroke="white" stroke-width="1.5" stroke-linecap="round" stroke-linejoin="round" class="icon icon-tabler icons-tabler-outline icon-tabler-player-pause">
	<path stroke="none" d="M0 0h24v24H0z" fill="none" />
	<path d="M6 6a1 1 0 0 1 1 -1h2a1 1 0 0 1 1 1v12a1 1 0 0 1 -1 1h-2a1 1 0 0 1 -1 -1l0 -12" fill="white" />
	<path d="M14 6a1 1 0 0 1 1 -1h2a1 1 0 0 1 1 1v12a1 1 0 0 1 -1 1h-2a1 1 0 0 1 -1 -1l0 -12" fill="white" />
</svg>
